<svg width="46" height="28" viewBox="0 0 46 28" fill="none" xmlns="http://www.w3.org/2000/svg">
<path d="M0.392242 19.1186C6.34691 24.5566 14.2267 27.8289 22.9745 27.8289C29.2145 27.8289 36.4742 25.8475 41.4706 22.1148C42.2904 21.5002 41.5777 20.5625 40.7422 20.947C35.1378 23.343 29.0495 24.5108 23.5054 24.5108C15.2898 24.5108 7.34738 22.2221 0.90873 18.4425C0.346492 18.1062 -0.0784976 18.6908 0.392242 19.1186Z" fill="#B7BEC9"/>
<path d="M32.8772 0.993112C32.8772 0.733986 32.7387 0.608642 32.4967 0.608642H31.0869C31.0665 0.606232 31.0436 0.606232 31.0231 0.606232C30.8245 0.606232 30.6415 0.664083 30.4922 0.762912C30.385 0.85451 30.2791 1.05578 30.1876 1.36312L27.5594 11.6534L25.1611 1.36312C25.1021 1.06904 24.9938 0.85451 24.8734 0.762912C24.7518 0.655646 24.5544 0.608642 24.2642 0.608642H23.0543C23.0314 0.606232 23.0109 0.606232 22.988 0.606232C22.787 0.606232 22.598 0.664083 22.4427 0.762912C22.3223 0.85451 22.2308 1.05578 22.1549 1.36312L19.7868 11.5317L17.2332 1.36312C17.1441 1.06904 17.0526 0.85451 16.9286 0.762912C16.8239 0.655646 16.6264 0.608642 16.3387 0.608642H14.8494C14.6074 0.608642 14.4858 0.747244 14.4858 0.993112L14.4882 1.00516C14.5111 1.22211 14.5581 1.43182 14.6231 1.61019L18.1904 13.4854C18.2819 13.777 18.3878 13.9916 18.5094 14.0832C18.631 14.1916 18.814 14.2374 19.0885 14.2374L20.3936 14.2362C20.6656 14.2362 20.8787 14.1904 21.0015 14.082C21.1219 13.9723 21.211 13.7734 21.2869 13.4661L23.6273 3.57593L25.9822 13.4817C26.0412 13.7903 26.1484 13.9904 26.2676 14.0964C26.3916 14.2049 26.5902 14.2507 26.8768 14.2507H28.1818C28.2011 14.2531 28.2179 14.2531 28.2372 14.2531C28.431 14.2531 28.6116 14.1952 28.7609 14.0964C28.8825 14.0048 28.9885 13.8048 29.08 13.4986L32.7387 1.62586L32.7327 1.64032C32.7809 1.51498 32.8182 1.38722 32.8447 1.24139C32.8603 1.14738 32.8772 1.07145 32.8772 0.993112Z" fill="#B7BEC9"/>
<path d="M41.4407 10.5964C41.4407 10.6109 41.4407 10.6229 41.4407 10.6374C41.4407 11.2364 41.1288 11.7595 40.6509 12.0548C40.1356 12.3934 39.3892 12.5634 38.4344 12.5634C37.8252 12.5634 37.2341 12.5031 36.6273 12.379C36.0338 12.2548 35.4728 12.0716 34.9563 11.8414C34.8046 11.7812 34.6673 11.7173 34.5758 11.6872C34.4855 11.657 34.394 11.6414 34.3025 11.6414C34.0762 11.6414 33.9546 11.7956 33.9546 12.1174V12.9008C33.9558 13.0563 33.9883 13.2058 34.0461 13.3311C34.1063 13.4697 34.2724 13.624 34.5156 13.759C34.9117 13.9904 35.5029 14.1904 36.2613 14.3748C37.021 14.558 37.8084 14.6484 38.5982 14.6484C39.3747 14.6484 40.0862 14.5399 40.7689 14.3266C41.4214 14.1266 41.9824 13.8506 42.4544 13.4661C42.9251 13.0973 43.2899 12.6381 43.5632 12.1138C43.8208 11.5919 43.9581 10.9917 43.9581 10.3313C43.9581 9.5334 43.7293 8.81147 43.2598 8.18113C42.7891 7.552 41.9981 7.05906 40.9061 6.70472L38.7487 6.01532C37.9432 5.75499 37.3822 5.46092 37.08 5.16804C36.7754 4.87638 36.6237 4.50758 36.6237 4.07731C36.6237 3.44817 36.8669 3.00224 37.3364 2.71057C37.8072 2.4177 38.4922 2.28271 39.3579 2.28271C39.3916 2.28271 39.4277 2.28271 39.4638 2.28271C40.4799 2.28271 41.4467 2.50207 42.2714 2.88051L42.2642 2.87689C42.4399 2.97572 42.6338 3.04081 42.8481 3.06491C43.0768 3.06491 43.1984 2.89618 43.1984 2.57197V1.85847C43.2008 1.8428 43.2008 1.82593 43.2008 1.80785C43.2008 1.63671 43.1491 1.47882 43.0636 1.35107L43.0612 1.34745C42.942 1.19077 42.7891 1.0594 42.6073 0.966597C42.4568 0.871384 42.2437 0.779786 41.9692 0.688188C41.6971 0.599001 41.4082 0.520661 41.1036 0.444731C40.7845 0.383264 40.4667 0.320591 40.1187 0.274793C39.784 0.228994 39.4337 0.214531 39.1002 0.214531C38.4332 0.214531 37.7951 0.292871 37.1872 0.474862C36.578 0.658057 36.0639 0.918388 35.6076 1.27273C35.1513 1.61019 34.7877 2.04046 34.5132 2.5322C34.2411 3.02514 34.1027 3.5928 34.1027 4.2364C34.1063 5.08006 34.3916 5.85744 34.8636 6.46488C35.3644 7.15668 36.1843 7.67855 37.2931 8.02927L39.4939 8.72228C40.2379 8.96815 40.7556 9.23089 41.0301 9.52015C41.2842 9.7865 41.4407 10.1529 41.4407 10.5542C41.4407 10.5699 41.4407 10.5808 41.4407 10.594C41.4407 10.594 41.4407 10.594 41.4407 10.5964Z" fill="#B7BEC9"/>
<path d="M42.8516 25.7703C45.5255 23.4972 46.2238 18.751 45.6772 18.0604C45.1318 17.3843 40.4377 16.801 37.5844 18.8282C37.1425 19.1512 37.2184 19.5814 37.7035 19.5212C39.3289 19.3211 42.913 18.892 43.5523 19.7188C44.1891 20.5336 42.8383 23.9601 42.2303 25.4799C42.0473 25.9391 42.4434 26.1235 42.8516 25.7703Z" fill="#B7BEC9"/>
<path d="M8.78984 6.29615C8.22881 6.21901 7.69787 6.17201 7.18018 6.17201C5.61627 6.17201 4.38705 6.57215 3.46002 7.37001C2.53419 8.16547 2.0791 9.22848 2.0791 10.5338C2.0791 11.7631 2.45834 12.7466 3.20237 13.483C3.9452 14.2206 4.96373 14.5882 6.2387 14.5882C8.03016 14.5882 9.52063 13.8819 10.7029 12.4706L10.7342 12.5405C10.8787 12.8454 11.0364 13.1407 11.1748 13.3745L11.1869 13.3938C11.3446 13.6457 11.524 13.8831 11.7214 14.0964C11.8719 14.2362 12.0236 14.3134 12.1765 14.3134H12.1777C12.3246 14.3085 12.4618 14.2567 12.5714 14.1748L13.5285 13.5312C13.726 13.3769 13.8175 13.2226 13.8175 13.0696C13.8175 12.9611 13.7874 12.8394 13.7115 12.7176C13.4984 12.3175 13.3455 11.9487 13.2239 11.6088C13.118 11.2726 13.0566 10.8134 13.0566 10.2433L13.0265 10.2457V5.26688C13.0265 3.57714 12.6027 2.31646 11.7672 1.49088C10.916 0.660473 9.59648 0.244667 7.78937 0.244667C7.76048 0.244667 7.73038 0.244667 7.70148 0.244667C6.89123 0.244667 6.10266 0.351933 5.41882 0.536334C4.67479 0.720735 4.0367 0.950934 3.50577 1.22693L3.49854 1.22934C3.33722 1.30045 3.19395 1.41013 3.07957 1.54753C3.00372 1.656 2.97363 1.8404 2.97363 2.08626V2.83833C2.97363 3.16013 3.07957 3.3144 3.29267 3.3144H3.29508C3.38056 3.31078 3.46242 3.29632 3.53466 3.27101L3.56476 3.26378C3.74776 3.20472 3.92474 3.13723 4.068 3.06974C4.59774 2.854 5.14673 2.68406 5.70777 2.54546C6.2688 2.40686 6.81659 2.3478 7.34873 2.3478C8.51775 2.3478 9.33763 2.57559 9.82282 3.05407C10.2948 3.53013 10.5355 4.34367 10.5355 5.51033V6.63241C9.93117 6.49501 9.35088 6.37208 8.78984 6.29615ZM10.5681 8.35469V8.99828C10.5681 9.52015 10.5055 9.96609 10.4164 10.3337C10.3249 10.7025 10.1419 11.0267 9.89867 11.3184C9.48933 11.7788 9.00294 12.1162 8.45635 12.3006C7.90856 12.485 7.39328 12.5766 6.89244 12.5766C6.19295 12.5766 5.66202 12.3922 5.29843 12.0078C4.91798 11.6402 4.73739 11.1002 4.73739 10.3795C4.73739 9.61175 4.97938 9.02841 5.47902 8.61502C5.98106 8.20042 6.72509 8.00035 7.74362 8.00035C8.24687 8.00035 8.74168 8.03409 9.17029 8.09195L9.2353 8.09918C9.71808 8.16426 10.1912 8.25586 10.5681 8.35469Z" fill="#B7BEC9"/>
</svg>
