<svg width="75" height="24" viewBox="0 0 75 24" fill="none" xmlns="http://www.w3.org/2000/svg">
<g clip-path="url(#clip0_378_1077)">
<path d="M9.71888 -2.86832e-05C4.43963 -2.86832e-05 0 4.1801 0 9.31215C0 14.4442 4.43963 18.6243 9.71888 18.6243C12.5671 18.6243 14.7171 17.7158 16.3999 16.0123C18.1299 14.3305 18.6669 11.97 18.6669 10.061C18.6669 9.49319 18.6222 8.96871 18.536 8.52527H9.71562V11.0697L15.9712 11.0671C15.7793 12.4704 15.2927 13.498 14.5528 14.2172C13.6405 15.1041 12.2162 16.0799 9.71562 16.0799C5.86049 16.0799 2.84558 13.0598 2.84558 9.31214C2.84558 5.5645 5.86049 2.5444 9.71562 2.5444C11.7962 2.5444 13.3151 3.33902 14.436 4.3611L16.2831 2.56605C14.7199 1.11404 12.6394 -3.8147e-05 9.71888 -3.8147e-05V-2.86832e-05ZM59.8409 0.683875V18.2594H62.4833V0.683875H59.8409ZM69.4398 6.62988C66.2605 6.62988 63.6209 9.06062 63.6209 12.6271C63.6209 15.9908 66.2382 18.6243 69.7429 18.6243C72.5689 18.6243 74.2045 16.9425 74.8832 15.9663L72.7802 14.6038C72.0793 15.6043 71.1225 16.2637 69.7429 16.2637C68.3661 16.2637 67.3842 15.6502 66.7528 14.447L75 11.1262L74.7191 10.4449C74.2073 9.1065 72.6412 6.62988 69.4398 6.62988V6.62988ZM25.9069 6.63253C22.4968 6.63253 19.7181 9.1525 19.7181 12.6298C19.7181 16.0827 22.4968 18.627 25.9069 18.627C29.317 18.627 32.0957 16.0827 32.0957 12.6298C32.0957 9.1525 29.317 6.63253 25.9069 6.63253V6.63253ZM39.258 6.63253C35.8479 6.63253 33.0692 9.1552 33.0692 12.6298C33.0692 16.0827 35.8479 18.627 39.258 18.627C42.6681 18.627 45.4468 16.0827 45.4468 12.6298C45.4468 9.1525 42.6681 6.63253 39.258 6.63253V6.63253ZM52.3255 6.63253C49.2408 6.63253 46.4149 9.26609 46.4149 12.6514C46.4149 16.0124 49.2408 18.6243 52.3255 18.6243C53.7997 18.6243 54.9678 17.9892 55.5742 17.2618H55.6687V18.1242C55.6687 20.4199 54.4087 21.6393 52.3755 21.6393C50.7177 21.6393 49.6886 20.4877 49.2686 19.5116L46.9098 20.4659C47.5884 22.0558 49.3881 24 52.3782 24C55.5547 24 58.2416 22.191 58.2416 17.7619V6.99744H55.6687V7.97392H55.5742C54.965 7.26819 53.7969 6.63252 52.3255 6.63252V6.63253ZM69.5316 8.94988C70.6052 8.94988 71.5177 9.47152 71.8209 10.2205L66.3079 12.446C66.2383 10.1314 68.1547 8.94988 69.5316 8.94988V8.94988ZM25.9069 8.99581C27.776 8.99581 29.3864 10.472 29.3864 12.6297C29.3864 14.7631 27.776 16.2637 25.9069 16.2637C24.0377 16.2637 22.4273 14.7658 22.4273 12.6297C22.4273 10.472 24.0377 8.99581 25.9069 8.99581ZM39.258 8.99581C41.1271 8.99581 42.7375 10.472 42.7375 12.6297C42.7375 14.7631 41.1271 16.2637 39.258 16.2637C37.3888 16.2637 35.7784 14.7658 35.7784 12.6297C35.7784 10.472 37.3888 8.99581 39.258 8.99581ZM52.5673 8.99581C54.4114 8.99581 55.8605 10.5396 55.8605 12.6514C55.8605 14.7415 54.4114 16.2637 52.5673 16.2637C50.6981 16.2637 49.1322 14.7415 49.1322 12.6514C49.1322 10.5396 50.6981 8.99581 52.5673 8.99581Z" fill="#B7BEC9"/>
</g>
<defs>
<clipPath id="clip0_378_1077">
<rect width="75" height="24" fill="white"/>
</clipPath>
</defs>
</svg>
