<svg width="97" height="24" viewBox="0 0 97 24" fill="none" xmlns="http://www.w3.org/2000/svg">
<path d="M74.4119 5.30861H69.096C68.7326 5.30861 68.4232 5.57717 68.3666 5.9418L66.2169 19.7831C66.1746 20.0562 66.3822 20.3032 66.6546 20.3032H69.3822C69.6364 20.3032 69.8533 20.1154 69.8927 19.86L70.5024 15.9361C70.559 15.5715 70.8684 15.3029 71.232 15.3029H72.9142C76.4153 15.3029 78.436 13.5821 78.9642 10.1718C79.2019 8.68031 78.9738 7.5083 78.2859 6.68781C77.5301 5.78557 76.1903 5.30861 74.4119 5.30861ZM75.0254 10.3637C74.7349 12.3014 73.2778 12.3014 71.868 12.3014H71.0662L71.6286 8.68371C71.6628 8.46488 71.8484 8.30379 72.0663 8.30379H72.434C73.3934 8.30379 74.2998 8.30379 74.7669 8.85887C75.0466 9.19124 75.131 9.68348 75.0254 10.3637Z" fill="#B7BEC9"/>
<path d="M36.4983 5.30861H31.1826C30.8192 5.30861 30.5099 5.57717 30.453 5.9418L28.3033 19.7831C28.261 20.0562 28.4689 20.3032 28.7412 20.3032H31.2794C31.6428 20.3032 31.9521 20.0349 32.009 19.6703L32.5891 15.9361C32.6457 15.5715 32.9551 15.3029 33.3184 15.3029H35.0006C38.502 15.3029 40.5226 13.5821 41.0509 10.1718C41.2886 8.68031 41.0604 7.5083 40.3728 6.68781C39.6165 5.78557 38.2764 5.30861 36.4983 5.30861ZM37.1118 10.3637C36.8213 12.3014 35.364 12.3014 33.9546 12.3014H33.1526L33.715 8.68371C33.7492 8.46488 33.9346 8.30379 34.1527 8.30379H34.5204C35.4798 8.30379 36.3862 8.30379 36.8533 8.85887C37.1328 9.19124 37.2174 9.68348 37.1118 10.3637Z" fill="#B7BEC9"/>
<path d="M52.3862 10.3019H49.8411C49.623 10.3019 49.4374 10.463 49.4032 10.6818L49.2914 11.4045L49.1134 11.1427C48.562 10.3303 47.3336 10.0588 46.1068 10.0588C43.2949 10.0588 40.8925 12.2228 40.4249 15.2578C40.1815 16.7719 40.5269 18.219 41.3724 19.229C42.1491 20.1569 43.2576 20.5431 44.5783 20.5431C46.8448 20.5431 48.1021 19.0642 48.1021 19.0642L47.9884 19.7828C47.9457 20.056 48.1535 20.3032 48.4261 20.3032H50.7184C51.0818 20.3032 51.3909 20.0349 51.4478 19.6705L52.8239 10.822C52.8664 10.5486 52.6586 10.3019 52.3862 10.3019ZM48.8389 15.333C48.5931 16.8097 47.4385 17.8012 45.9659 17.8012C45.2276 17.8012 44.6366 17.5601 44.2567 17.1035C43.8802 16.6511 43.7385 16.0062 43.858 15.2881C44.0871 13.8245 45.2604 12.8009 46.7105 12.8009C47.4332 12.8009 48.0202 13.0443 48.4075 13.5052C48.7974 13.9693 48.9505 14.6183 48.8389 15.333Z" fill="#B7BEC9"/>
<path d="M90.2995 10.3019H87.7545C87.5364 10.3019 87.3507 10.463 87.3168 10.6818L87.2048 11.4045L87.0268 11.1427C86.4754 10.3303 85.2469 10.0588 84.0201 10.0588C81.208 10.0588 78.8058 12.2228 78.3385 15.2578C78.095 16.7719 78.4405 18.219 79.286 19.229C80.0627 20.1569 81.1712 20.5431 82.4919 20.5431C84.7584 20.5431 86.0157 19.0642 86.0157 19.0642L85.902 19.7828C85.8592 20.056 86.0671 20.3032 86.3397 20.3032H88.632C88.9954 20.3032 89.3045 20.0349 89.3614 19.6705L90.7375 10.822C90.78 10.5486 90.5719 10.3019 90.2995 10.3019ZM86.7525 15.333C86.5067 16.8097 85.3523 17.8012 83.8797 17.8012C83.1412 17.8012 82.5504 17.5601 82.1703 17.1035C81.794 16.6511 81.6521 16.0062 81.7716 15.2881C82.0009 13.8245 83.1737 12.8009 84.6239 12.8009C85.3465 12.8009 85.9335 13.0443 86.321 13.5052C86.7107 13.9693 86.8638 14.6183 86.7525 15.333Z" fill="#B7BEC9"/>
<path d="M65.9433 10.3019H63.3849C63.1402 10.3019 62.9113 10.4254 62.7737 10.6308L59.2446 15.9089L57.7488 10.8368C57.6552 10.5195 57.3675 10.3016 57.0414 10.3016H54.5265C54.2228 10.3016 54.0092 10.6049 54.1069 10.897L56.9241 19.294L54.2744 23.0902C54.0663 23.3884 54.2763 23.8006 54.6361 23.8006H57.1919C57.4342 23.8006 57.6609 23.68 57.799 23.4777L66.3074 11.0081C66.5109 10.7099 66.3007 10.3019 65.9433 10.3019Z" fill="#B7BEC9"/>
<path d="M93.3002 5.68877L91.1183 19.7833C91.076 20.0562 91.2838 20.3032 91.5559 20.3032H93.7503C94.1137 20.3032 94.4231 20.0349 94.4799 19.6703L96.631 5.829C96.6735 5.55582 96.4657 5.30885 96.1933 5.30885H93.7381C93.5198 5.30861 93.3341 5.46994 93.3002 5.68877Z" fill="#B7BEC9"/>
<path opacity="0.68" d="M17.8342 6.04703C18.1191 4.19539 17.8323 2.93576 16.8497 1.79442C15.7679 0.538182 13.8138 0 11.3135 0H4.05569C3.54479 0 3.10952 0.378909 3.03008 0.893576L0.00770428 20.4262C-0.0517585 20.8116 0.24056 21.16 0.623025 21.16H5.10366L4.79445 23.1588C4.74236 23.496 4.99782 23.8007 5.33271 23.8007H9.10955C9.55647 23.8007 9.93703 23.4693 10.0067 23.0192L10.0438 22.8233L10.7552 18.225L10.8011 17.9709C10.8708 17.521 11.2514 17.1891 11.6983 17.1891H12.2632C15.9221 17.1891 18.787 15.6742 19.624 11.2926C19.9739 9.46182 19.7929 7.93358 18.8679 6.85915C18.5884 6.53479 18.2402 6.26618 17.8342 6.04703Z" fill="#B7BEC9"/>
<path opacity="0.7" d="M17.8342 6.04703C18.1191 4.19539 17.8323 2.93576 16.8497 1.79442C15.7679 0.538182 13.8138 0 11.3135 0H4.05569C3.54479 0 3.10952 0.378909 3.03008 0.893576L0.00770428 20.4262C-0.0517585 20.8116 0.24056 21.16 0.623025 21.16H5.10366L6.22917 13.8856L6.19421 14.1137C6.27389 13.5993 6.70511 13.2201 7.21625 13.2201H9.34597C13.5283 13.2201 16.8033 11.4882 17.7599 6.47976C17.7885 6.33188 17.8125 6.18812 17.8342 6.04703Z" fill="#B7BEC9"/>
<path d="M7.43841 6.07152C7.48621 5.76218 7.68125 5.50861 7.9436 5.38061C8.06276 5.32242 8.1962 5.28994 8.33582 5.28994H14.025C14.699 5.28994 15.3274 5.33503 15.9019 5.42933C16.066 5.45624 16.2258 5.48727 16.3811 5.52242C16.5362 5.55758 16.687 5.59661 16.8328 5.64024C16.9058 5.66182 16.9774 5.68485 17.0481 5.70861C17.3302 5.80412 17.593 5.91661 17.8346 6.04727C18.1196 4.19564 17.8327 2.936 16.8502 1.79467C15.7679 0.538182 13.8138 0 11.3135 0H4.05569C3.54479 0 3.10952 0.378909 3.03008 0.893576L0.00770428 20.4262C-0.0517585 20.8116 0.24056 21.16 0.623025 21.16H5.10366L6.22917 13.8856L7.43841 6.07152Z" fill="#B7BEC9"/>
</svg>
