<svg width="82" height="82" viewBox="0 0 82 82" fill="none" xmlns="http://www.w3.org/2000/svg">
<path d="M54 0H28C12.536 0 0 12.536 0 28V54C0 69.464 12.536 82 28 82H54C69.464 82 82 69.464 82 54V28C82 12.536 69.464 0 54 0Z" fill="#E4FFEE"/>
<path d="M50.75 22C45.661 22 41.5 26.1811 41.5 31.2947C41.5 32.8315 42.0905 34.3992 42.849 36.1358C43.6516 37.9427 44.5523 39.7042 45.5469 41.4121C46.7837 43.5438 48.1018 45.6268 49.4982 47.6566L50.75 49.4969L52.0034 47.6566C52.0034 47.6566 53.989 44.8124 55.9531 41.4136C56.9474 39.705 57.8481 37.9431 58.651 36.1358C59.4095 34.3992 60 32.8315 60 31.2947C60 26.1811 55.839 22 50.75 22ZM35.2855 25.0022L23 30.2785V60L35.3811 54.6276L47.7145 59.275L60 53.9971V40.4919C59.0439 42.3076 58.0153 44.0839 56.9167 45.8162V51.9647L49.2083 55.2566V52.7393L46.9436 49.4474C46.7031 49.0957 46.4195 48.6775 46.125 48.236V55.4007L36.875 51.9151V28.875L38.5616 29.5055C38.7056 28.4737 38.9807 27.4647 39.3802 26.5033L35.2855 25.0038V25.0022ZM50.75 25.0982C54.171 25.0982 56.9167 27.8572 56.9167 31.2947C56.9167 31.8943 56.5451 33.3086 55.856 34.8779C55.17 36.444 54.2002 38.224 53.2552 39.8629C51.9972 42.041 51.4545 42.8187 50.75 43.8845C50.0455 42.8187 49.5028 42.041 48.2448 39.8629C47.2997 38.2224 46.3316 36.444 45.6425 34.8763C44.9564 33.3117 44.5833 31.8943 44.5833 31.2947C44.5833 27.8572 47.329 25.0982 50.75 25.0982ZM33.7917 28.9711V51.9662L26.0833 55.2581V32.311L33.7917 28.9711Z" fill="#40975F"/>
</svg>
