<svg width="82" height="82" viewBox="0 0 82 82" fill="none" xmlns="http://www.w3.org/2000/svg">
<path d="M54 0H28C12.536 0 0 12.536 0 28V54C0 69.464 12.536 82 28 82H54C69.464 82 82 69.464 82 54V28C82 12.536 69.464 0 54 0Z" fill="#FFF6D3"/>
<path d="M40.9998 34.7595C42.0943 34.7595 43.1781 34.975 44.1893 35.3939C45.2004 35.8127 46.1192 36.4266 46.8931 37.2006C47.667 37.9745 48.2809 38.8932 48.6998 39.9044C49.1186 40.9156 49.3342 41.9994 49.3342 43.0938C49.3342 44.1883 49.1186 45.2721 48.6998 46.2833C48.2809 47.2944 47.667 48.2132 46.8931 48.9871C46.1192 49.7611 45.2004 50.375 44.1893 50.7938C43.1781 51.2126 42.0943 51.4282 40.9998 51.4282C38.7894 51.4282 36.6695 50.5501 35.1065 48.9871C33.5435 47.4241 32.6655 45.3043 32.6655 43.0938C32.6655 40.8834 33.5435 38.7636 35.1065 37.2006C36.6695 35.6376 38.7894 34.7595 40.9998 34.7595V34.7595ZM40.9998 37.8845C39.6182 37.8845 38.2932 38.4333 37.3162 39.4103C36.3393 40.3872 35.7905 41.7122 35.7905 43.0938C35.7905 44.4755 36.3393 45.8005 37.3162 46.7774C38.2932 47.7544 39.6182 48.3032 40.9998 48.3032C42.3814 48.3032 43.7065 47.7544 44.6834 46.7774C45.6604 45.8005 46.2092 44.4755 46.2092 43.0938C46.2092 41.7122 45.6604 40.3872 44.6834 39.4103C43.7065 38.4333 42.3814 37.8845 40.9998 37.8845ZM40.9998 27.4595C50.6123 27.4595 58.9061 34.022 61.2092 43.2188C61.2643 43.4197 61.2787 43.6295 61.2515 43.8359C61.2243 44.0424 61.1562 44.2413 61.051 44.4211C60.9459 44.6008 60.8058 44.7577 60.6392 44.8826C60.4725 45.0074 60.2826 45.0977 60.0806 45.1481C59.8785 45.1985 59.6684 45.208 59.4627 45.1761C59.2569 45.1441 59.0596 45.0714 58.8823 44.9621C58.7051 44.8528 58.5515 44.7092 58.4305 44.5397C58.3095 44.3702 58.2237 44.1783 58.178 43.9751C57.211 40.151 54.9957 36.7588 51.8829 34.336C48.7701 31.9133 44.9379 30.5985 40.9934 30.5999C37.0489 30.6014 33.2177 31.919 30.1066 34.344C26.9956 36.769 24.7828 40.1628 23.8186 43.9876C23.7155 44.387 23.4587 44.7294 23.1041 44.9402C22.7496 45.1509 22.3261 45.213 21.926 45.1128C21.5259 45.0125 21.1816 44.7581 20.9683 44.4051C20.755 44.0521 20.69 43.629 20.7873 43.2282C21.9176 38.7234 24.5203 34.7252 28.1822 31.8684C31.8441 29.0116 36.3554 27.4598 40.9998 27.4595Z" fill="#D6AB00"/>
</svg>
