<svg width="110" height="110" viewBox="0 0 110 110" fill="none" xmlns="http://www.w3.org/2000/svg">
<path opacity="0.102" d="M75 0H35C15.67 0 0 15.67 0 35V75C0 94.33 15.67 110 35 110H75C94.33 110 110 94.33 110 75V35C110 15.67 94.33 0 75 0Z" fill="#FF4361"/>
<path d="M47.3422 42.0733C50.3828 42.0733 52.8513 44.5198 52.8513 47.5286V50.7673C52.8513 51.3297 53.3116 51.7845 53.8734 51.7845C54.4358 51.7845 54.8906 51.3297 54.8906 50.7673V47.5286C54.8906 45.9655 55.5814 44.4666 56.7863 43.4273C58.0064 42.3728 59.6178 41.9022 61.2133 42.1327C64.029 42.5447 66.1013 45.2216 65.9295 48.2298C65.5658 54.6111 60.2658 59.6061 53.8734 59.6061C47.2139 59.6061 41.7959 54.1881 41.7959 47.5286C41.7959 44.5736 44.3334 42.0733 47.3422 42.0733ZM53.8734 35.4511C57.9961 35.4511 61.7861 37.5387 64.0076 40.9705C62.9048 40.355 61.6792 40.0389 60.3997 40.0389C57.7014 40.0389 55.1908 41.5275 53.8734 43.8724C52.5511 41.5275 50.0461 40.0389 47.3422 40.0389C46.0683 40.0389 44.8372 40.355 43.7392 40.9705C45.9558 37.5387 49.7459 35.4511 53.8734 35.4511ZM65.737 73.6808C59.6558 72.0321 55.4958 67.4492 54.7781 61.6136C59.2169 61.33 63.3175 58.8995 65.737 55.1625V73.6808ZM57.2839 74.2639C48.5734 74.2639 42.005 68.0592 42.005 59.8311V55.1681C44.3872 58.8677 48.3167 61.2389 52.7223 61.5922C53.3006 67.0579 56.5772 71.7105 61.5936 74.2639H57.2839ZM54.5 82C69.1337 82 81 70.1337 81 55.5C81 40.8663 69.1337 29 54.5 29C39.8663 29 28 40.8663 28 55.5C28 70.1337 39.8663 82 54.5 82Z" fill="#A61E1E"/>
<path d="M45.104 47.5286C45.104 46.2974 46.1109 45.2961 47.3421 45.2961C48.5732 45.2961 49.5801 46.2974 49.5801 47.5286C49.5801 48.7652 48.5732 49.7666 47.3421 49.7666C46.1109 49.7666 45.104 48.7652 45.104 47.5286ZM51.6145 47.5286C51.6145 45.1726 49.6974 43.2568 47.3421 43.2568C44.9867 43.2568 43.0703 45.1726 43.0703 47.5286C43.0703 49.8839 44.9867 51.801 47.3421 51.801C49.6974 51.801 51.6145 49.8839 51.6145 47.5286Z" fill="#A61E1E"/>
<path d="M60.3997 45.2961C61.6363 45.2961 62.6377 46.2974 62.6377 47.5286C62.6377 48.7652 61.6363 49.7666 60.3997 49.7666C59.1678 49.7666 58.1672 48.7652 58.1672 47.5286C58.1672 46.2974 59.1678 45.2961 60.3997 45.2961ZM60.3997 51.801C62.755 51.801 64.6721 49.8839 64.6721 47.5286C64.6721 45.1726 62.755 43.2568 60.3997 43.2568C58.0437 43.2568 56.1279 45.1726 56.1279 47.5286C56.1279 49.8839 58.0437 51.801 60.3997 51.801Z" fill="#A61E1E"/>
</svg>
