<svg width="110" height="110" viewBox="0 0 110 110" fill="none" xmlns="http://www.w3.org/2000/svg">
<path d="M75 0H35C15.67 0 0 15.67 0 35V75C0 94.33 15.67 110 35 110H75C94.33 110 110 94.33 110 75V35C110 15.67 94.33 0 75 0Z" fill="#E4FFEE"/>
<path d="M38 38.5V71.5C38 72.9587 38.5795 74.3576 39.6109 75.3891C40.6424 76.4205 42.0413 77 43.5 77H69.625C69.9897 77 70.3394 76.8551 70.5973 76.5973C70.8551 76.3394 71 75.9897 71 75.625C71 75.2603 70.8551 74.9106 70.5973 74.6527C70.3394 74.3949 69.9897 74.25 69.625 74.25H43.5C42.7707 74.25 42.0712 73.9603 41.5555 73.4445C41.0397 72.9288 40.75 72.2293 40.75 71.5H68.25C68.9793 71.5 69.6788 71.2103 70.1945 70.6945C70.7103 70.1788 71 69.4793 71 68.75V38.5C71 37.0413 70.4205 35.6424 69.3891 34.6109C68.3576 33.5795 66.9587 33 65.5 33H43.5C42.0413 33 40.6424 33.5795 39.6109 34.6109C38.5795 35.6424 38 37.0413 38 38.5V38.5ZM65.5 35.75C66.2293 35.75 66.9288 36.0397 67.4445 36.5555C67.9603 37.0712 68.25 37.7707 68.25 38.5V68.75H40.75V38.5C40.75 37.7707 41.0397 37.0712 41.5555 36.5555C42.0712 36.0397 42.7707 35.75 43.5 35.75H65.5ZM58.8615 54.6672C59.801 53.2459 60.1793 51.5264 59.923 49.8421C59.6667 48.1577 58.7941 46.6285 57.4744 45.5509C56.1547 44.4734 54.4819 43.9242 52.7803 44.0099C51.0787 44.0956 49.4696 44.8101 48.2648 46.0148C47.0601 47.2196 46.3456 48.8287 46.2599 50.5303C46.1742 52.2319 46.7234 53.9047 47.8009 55.2244C48.8785 56.5441 50.4077 57.4167 52.0921 57.673C53.7764 57.9293 55.4959 57.551 56.9172 56.6115L60.4015 60.0985C60.5293 60.2263 60.6811 60.3278 60.8481 60.3969C61.0152 60.4661 61.1942 60.5017 61.375 60.5017C61.5558 60.5017 61.7348 60.4661 61.9019 60.3969C62.0689 60.3278 62.2207 60.2263 62.3485 60.0985C62.4763 59.9707 62.5778 59.8189 62.6469 59.6519C62.7161 59.4848 62.7517 59.3058 62.7517 59.125C62.7517 58.9442 62.7161 58.7652 62.6469 58.5981C62.5778 58.4311 62.4763 58.2793 62.3485 58.1515L58.8615 54.67V54.6672ZM49 50.875C49 49.781 49.4346 48.7318 50.2082 47.9582C50.9818 47.1846 52.031 46.75 53.125 46.75C54.219 46.75 55.2682 47.1846 56.0418 47.9582C56.8154 48.7318 57.25 49.781 57.25 50.875C57.25 51.969 56.8154 53.0182 56.0418 53.7918C55.2682 54.5654 54.219 55 53.125 55C52.031 55 50.9818 54.5654 50.2082 53.7918C49.4346 53.0182 49 51.969 49 50.875V50.875Z" fill="#40975F"/>
</svg>
