<svg width="110" height="110" viewBox="0 0 110 110" fill="none" xmlns="http://www.w3.org/2000/svg">
<path opacity="0.09" d="M75 0H35C15.67 0 0 15.67 0 35V75C0 94.33 15.67 110 35 110H75C94.33 110 110 94.33 110 75V35C110 15.67 94.33 0 75 0Z" fill="#2563FF"/>
<path d="M69.7273 50.0714C69.7273 46.15 68.1757 42.3892 65.4138 39.6163C62.6519 36.8435 58.9059 35.2857 55 35.2857C51.0941 35.2857 47.3481 36.8435 44.5862 39.6163C41.8243 42.3892 40.2727 46.15 40.2727 50.0714C40.2727 56.1369 45.1065 64.0423 55 73.5117C64.8935 64.0423 69.7273 56.1369 69.7273 50.0714ZM55 78C42.9989 67.0487 37 57.737 37 50.0714C37 45.2786 38.8964 40.682 42.2721 37.293C45.6477 33.9039 50.2261 32 55 32C59.7739 32 64.3523 33.9039 67.7279 37.293C71.1036 40.682 73 45.2786 73 50.0714C73 57.737 67.0011 67.0487 55 78Z" fill="#2563FF"/>
<path d="M55.0002 55C56.3021 55 57.5508 54.4808 58.4714 53.5565C59.3921 52.6322 59.9093 51.3786 59.9093 50.0715C59.9093 48.7643 59.3921 47.5107 58.4714 46.5864C57.5508 45.6622 56.3021 45.1429 55.0002 45.1429C53.6982 45.1429 52.4496 45.6622 51.5289 46.5864C50.6083 47.5107 50.0911 48.7643 50.0911 50.0715C50.0911 51.3786 50.6083 52.6322 51.5289 53.5565C52.4496 54.4808 53.6982 55 55.0002 55V55ZM55.0002 58.2857C52.8302 58.2857 50.7491 57.4203 49.2148 55.8798C47.6804 54.3394 46.8184 52.25 46.8184 50.0715C46.8184 47.8929 47.6804 45.8036 49.2148 44.2631C50.7491 42.7226 52.8302 41.8572 55.0002 41.8572C57.1701 41.8572 59.2512 42.7226 60.7856 44.2631C62.32 45.8036 63.182 47.8929 63.182 50.0715C63.182 52.25 62.32 54.3394 60.7856 55.8798C59.2512 57.4203 57.1701 58.2857 55.0002 58.2857Z" fill="#2563FF"/>
</svg>
