<svg width="57" height="57" viewBox="0 0 57 57" fill="none" xmlns="http://www.w3.org/2000/svg">
<path d="M30.9868 16.8978C29.6936 15.8717 27.7884 16.7934 27.7884 18.4436V23.9929L18.8439 16.899C17.5507 15.8729 15.6455 16.7946 15.6455 18.4448V37.5564C15.6455 39.2067 17.5519 40.1283 18.8439 39.1022L27.7884 32.0108V37.554C27.7884 39.2042 29.6948 40.1259 30.9868 39.0998L42.6889 29.8227C42.9637 29.6047 43.1857 29.3275 43.3383 29.0116C43.491 28.6958 43.5702 28.3496 43.5702 27.9988C43.5702 27.648 43.491 27.3018 43.3383 26.986C43.1857 26.6702 42.9637 26.3929 42.6889 26.1749L30.988 16.8966L30.9868 16.8978Z" fill="#FE5868"/>
<path opacity="0.1" fill-rule="evenodd" clip-rule="evenodd" d="M24.5419 0.791504H32.4586C45.5753 0.791504 56.2086 11.4245 56.2086 24.5415V32.4582C56.2086 45.5747 45.5753 56.2081 32.4586 56.2081H24.5419C11.4252 56.2081 0.791992 45.5747 0.791992 32.4582V24.5415C0.791992 11.4245 11.4252 0.791504 24.5419 0.791504Z" fill="url(#paint0_linear_373_1047)"/>
<defs>
<linearGradient id="paint0_linear_373_1047" x1="32.7858" y1="89.7854" x2="89.7858" y2="24.2144" gradientUnits="userSpaceOnUse">
<stop stop-color="#FF416C"/>
<stop offset="1" stop-color="#FF4B2B"/>
</linearGradient>
</defs>
</svg>
