<svg width="197" height="40" viewBox="0 0 197 40" fill="none" xmlns="http://www.w3.org/2000/svg">
<path d="M52.8457 30.0508L61.2415 7.23828H64.1582L72.5332 30.0508H69.6165L67.5332 24.1758H57.8249L55.7207 30.0508H52.8457ZM58.6374 21.9674H66.7207L62.679 10.6966L58.6374 21.9674Z" fill="white"/>
<path d="M79.1921 30.0508C77.7181 30.0508 76.5566 29.6967 75.7129 28.9883C74.8639 28.2696 74.4421 26.9675 74.4421 25.0925V16.1967H71.6504V13.8842H74.4421L74.7962 10.0092H77.1712V13.8842H81.9421V16.1967H77.1712V25.0925C77.1712 26.1237 77.3796 26.8164 77.7962 27.1758C78.2129 27.5248 78.9421 27.6967 79.9837 27.6967H81.6712V30.0508H79.1921Z" fill="white"/>
<path d="M82.4932 30.0507V6.59241H85.2223V16.6549C85.764 15.6549 86.5348 14.8789 87.5348 14.3216C88.5348 13.7695 89.6234 13.4882 90.8057 13.4882C92.665 13.4882 94.1598 14.0716 95.2848 15.2382C96.4202 16.4049 96.9932 18.1914 96.9932 20.5924V30.0507H94.2848V20.9049C94.2848 17.5299 92.9307 15.8424 90.2223 15.8424C88.8057 15.8424 87.6182 16.3528 86.6598 17.3632C85.7015 18.3789 85.2223 19.8164 85.2223 21.6757V30.0507H82.4932Z" fill="white"/>
<path d="M105.467 30.4466C103.925 30.4466 102.556 30.0924 101.363 29.3841C100.165 28.6758 99.2223 27.6966 98.5296 26.4466C97.8473 25.1862 97.5088 23.6914 97.5088 21.9674C97.5088 20.2747 97.8421 18.7956 98.5088 17.5299C99.1859 16.2539 100.134 15.2591 101.342 14.5508C102.55 13.8424 103.946 13.4883 105.53 13.4883C107.082 13.4883 108.431 13.8424 109.571 14.5508C110.722 15.2591 111.597 16.1914 112.196 17.3424C112.806 18.4987 113.113 19.7331 113.113 21.0508C113.113 21.3008 113.103 21.5456 113.092 21.7799C113.092 22.0195 113.092 22.2904 113.092 22.5924H100.217C100.285 23.832 100.571 24.8581 101.071 25.6758C101.582 26.4831 102.222 27.0924 102.988 27.5091C103.764 27.9258 104.592 28.1341 105.467 28.1341C106.592 28.1341 107.53 27.8789 108.28 27.3633C109.04 26.8372 109.603 26.1289 109.967 25.2383H112.655C112.222 26.7279 111.389 27.9674 110.155 28.9674C108.931 29.957 107.368 30.4466 105.467 30.4466ZM105.467 15.8216C104.16 15.8216 102.998 16.2174 101.988 17.0091C100.972 17.8008 100.389 18.957 100.238 20.4674H110.405C110.347 19.0091 109.847 17.8737 108.905 17.0508C107.972 16.2331 106.826 15.8216 105.467 15.8216Z" fill="white"/>
<path d="M113.802 30.0508V13.8841H116.281L116.448 16.7799C116.958 15.7695 117.703 14.9674 118.677 14.3841C119.661 13.7904 120.771 13.4883 122.01 13.4883C123.927 13.4883 125.453 14.0716 126.593 15.2383C127.729 16.4049 128.302 18.1914 128.302 20.5924V30.0508H125.573V20.9049C125.573 17.5299 124.177 15.8424 121.385 15.8424C119.994 15.8424 118.833 16.3529 117.906 17.3633C116.989 18.3789 116.531 19.8164 116.531 21.6758V30.0508H113.802Z" fill="white"/>
<path d="M134.881 30.4466C133.532 30.4466 132.412 30.2174 131.527 29.7591C130.636 29.3008 129.969 28.6966 129.527 27.9466C129.094 27.1862 128.881 26.3529 128.881 25.4466C128.881 23.8112 129.511 22.5456 130.777 21.6549C132.037 20.7539 133.756 20.3008 135.923 20.3008H140.298V20.1133C140.298 18.6966 139.923 17.6289 139.173 16.9049C138.433 16.1862 137.449 15.8216 136.214 15.8216C135.141 15.8216 134.219 16.0872 133.443 16.6133C132.678 17.1445 132.199 17.9206 132.006 18.9466H129.214C129.324 17.7695 129.719 16.7747 130.402 15.9674C131.079 15.1654 131.928 14.5508 132.943 14.1341C133.969 13.707 135.058 13.4883 136.214 13.4883C138.475 13.4883 140.178 14.0924 141.318 15.3008C142.454 16.5091 143.027 18.1133 143.027 20.1133V30.0508H140.589L140.423 27.1549C139.964 28.0612 139.287 28.8372 138.402 29.4883C137.527 30.1237 136.35 30.4466 134.881 30.4466ZM135.298 28.1341C136.339 28.1341 137.235 27.8633 137.985 27.3216C138.735 26.7799 139.303 26.0716 139.693 25.1966C140.094 24.3216 140.298 23.4154 140.298 22.4674V22.4258H136.152C134.537 22.4258 133.402 22.707 132.735 23.2591C132.079 23.8164 131.756 24.5039 131.756 25.3216C131.756 26.1706 132.058 26.8529 132.673 27.3633C133.298 27.8789 134.173 28.1341 135.298 28.1341Z" fill="white"/>
</svg>
