<svg xmlns="http://www.w3.org/2000/svg" xmlns:xlink="http://www.w3.org/1999/xlink" width="197" zoomAndPan="magnify" viewBox="0 0 147.75 30.000001" height="40" preserveAspectRatio="xMidYMid meet" version="1.0"><defs><g/></defs><g fill="#080808" fill-opacity="1"><g transform="translate(38.899865, 22.538072)"><g><path d="M 0.734375 0 L 7.03125 -17.109375 L 9.21875 -17.109375 L 15.5 0 L 13.3125 0 L 11.75 -4.40625 L 4.46875 -4.40625 L 2.890625 0 Z M 5.078125 -6.0625 L 11.140625 -6.0625 L 8.109375 -14.515625 Z M 5.078125 -6.0625 "/></g></g></g><g fill="#080808" fill-opacity="1"><g transform="translate(52.9254, 22.538072)"><g><path d="M 6.46875 0 C 5.363281 0 4.492188 -0.265625 3.859375 -0.796875 C 3.222656 -1.335938 2.90625 -2.3125 2.90625 -3.71875 L 2.90625 -10.390625 L 0.8125 -10.390625 L 0.8125 -12.125 L 2.90625 -12.125 L 3.171875 -15.03125 L 4.953125 -15.03125 L 4.953125 -12.125 L 8.53125 -12.125 L 8.53125 -10.390625 L 4.953125 -10.390625 L 4.953125 -3.71875 C 4.953125 -2.945312 5.109375 -2.425781 5.421875 -2.15625 C 5.734375 -1.894531 6.28125 -1.765625 7.0625 -1.765625 L 8.328125 -1.765625 L 8.328125 0 Z M 6.46875 0 "/></g></g></g><g fill="#080808" fill-opacity="1"><g transform="translate(60.18239, 22.538072)"><g><path d="M 1.6875 0 L 1.6875 -17.59375 L 3.734375 -17.59375 L 3.734375 -10.046875 C 4.140625 -10.796875 4.71875 -11.378906 5.46875 -11.796875 C 6.21875 -12.210938 7.035156 -12.421875 7.921875 -12.421875 C 9.316406 -12.421875 10.4375 -11.984375 11.28125 -11.109375 C 12.132812 -10.234375 12.5625 -8.894531 12.5625 -7.09375 L 12.5625 0 L 10.53125 0 L 10.53125 -6.859375 C 10.53125 -9.390625 9.515625 -10.65625 7.484375 -10.65625 C 6.421875 -10.65625 5.53125 -10.273438 4.8125 -9.515625 C 4.09375 -8.753906 3.734375 -7.675781 3.734375 -6.28125 L 3.734375 0 Z M 1.6875 0 "/></g></g></g><g fill="#080808" fill-opacity="1"><g transform="translate(71.959895, 22.538072)"><g><path d="M 7.140625 0.296875 C 5.984375 0.296875 4.957031 0.03125 4.0625 -0.5 C 3.164062 -1.03125 2.457031 -1.765625 1.9375 -2.703125 C 1.425781 -3.648438 1.171875 -4.769531 1.171875 -6.0625 C 1.171875 -7.332031 1.421875 -8.441406 1.921875 -9.390625 C 2.429688 -10.347656 3.140625 -11.09375 4.046875 -11.625 C 4.953125 -12.15625 6 -12.421875 7.1875 -12.421875 C 8.351562 -12.421875 9.363281 -12.15625 10.21875 -11.625 C 11.082031 -11.09375 11.738281 -10.394531 12.1875 -9.53125 C 12.644531 -8.664062 12.875 -7.738281 12.875 -6.75 C 12.875 -6.5625 12.867188 -6.378906 12.859375 -6.203125 C 12.859375 -6.023438 12.859375 -5.820312 12.859375 -5.59375 L 3.203125 -5.59375 C 3.253906 -4.664062 3.46875 -3.894531 3.84375 -3.28125 C 4.226562 -2.675781 4.707031 -2.21875 5.28125 -1.90625 C 5.863281 -1.59375 6.484375 -1.4375 7.140625 -1.4375 C 7.984375 -1.4375 8.6875 -1.628906 9.25 -2.015625 C 9.820312 -2.410156 10.242188 -2.941406 10.515625 -3.609375 L 12.53125 -3.609375 C 12.207031 -2.492188 11.582031 -1.5625 10.65625 -0.8125 C 9.738281 -0.0703125 8.566406 0.296875 7.140625 0.296875 Z M 7.140625 -10.671875 C 6.160156 -10.671875 5.289062 -10.375 4.53125 -9.78125 C 3.769531 -9.1875 3.332031 -8.320312 3.21875 -7.1875 L 10.84375 -7.1875 C 10.800781 -8.28125 10.425781 -9.132812 9.71875 -9.75 C 9.019531 -10.363281 8.160156 -10.671875 7.140625 -10.671875 Z M 7.140625 -10.671875 "/></g></g></g><g fill="#080808" fill-opacity="1"><g transform="translate(83.664091, 22.538072)"><g><path d="M 1.6875 0 L 1.6875 -12.125 L 3.546875 -12.125 L 3.671875 -9.953125 C 4.054688 -10.710938 4.613281 -11.3125 5.34375 -11.75 C 6.082031 -12.195312 6.914062 -12.421875 7.84375 -12.421875 C 9.28125 -12.421875 10.425781 -11.984375 11.28125 -11.109375 C 12.132812 -10.234375 12.5625 -8.894531 12.5625 -7.09375 L 12.5625 0 L 10.515625 0 L 10.515625 -6.859375 C 10.515625 -9.390625 9.46875 -10.65625 7.375 -10.65625 C 6.332031 -10.65625 5.460938 -10.273438 4.765625 -9.515625 C 4.078125 -8.753906 3.734375 -7.675781 3.734375 -6.28125 L 3.734375 0 Z M 1.6875 0 "/></g></g></g><g fill="#080808" fill-opacity="1"><g transform="translate(95.441593, 22.538072)"><g><path d="M 5.71875 0.296875 C 4.707031 0.296875 3.867188 0.125 3.203125 -0.21875 C 2.535156 -0.5625 2.035156 -1.015625 1.703125 -1.578125 C 1.378906 -2.148438 1.21875 -2.773438 1.21875 -3.453125 C 1.21875 -4.679688 1.691406 -5.628906 2.640625 -6.296875 C 3.585938 -6.972656 4.875 -7.3125 6.5 -7.3125 L 9.78125 -7.3125 L 9.78125 -7.453125 C 9.78125 -8.515625 9.5 -9.316406 8.9375 -9.859375 C 8.382812 -10.398438 7.644531 -10.671875 6.71875 -10.671875 C 5.914062 -10.671875 5.222656 -10.472656 4.640625 -10.078125 C 4.066406 -9.679688 3.707031 -9.097656 3.5625 -8.328125 L 1.46875 -8.328125 C 1.550781 -9.210938 1.847656 -9.957031 2.359375 -10.5625 C 2.867188 -11.164062 3.503906 -11.625 4.265625 -11.9375 C 5.035156 -12.257812 5.851562 -12.421875 6.71875 -12.421875 C 8.414062 -12.421875 9.691406 -11.96875 10.546875 -11.0625 C 11.398438 -10.15625 11.828125 -8.953125 11.828125 -7.453125 L 11.828125 0 L 10 0 L 9.875 -2.171875 C 9.53125 -1.492188 9.023438 -0.910156 8.359375 -0.421875 C 7.703125 0.0546875 6.820312 0.296875 5.71875 0.296875 Z M 6.03125 -1.4375 C 6.8125 -1.4375 7.484375 -1.640625 8.046875 -2.046875 C 8.609375 -2.453125 9.035156 -2.984375 9.328125 -3.640625 C 9.628906 -4.296875 9.78125 -4.976562 9.78125 -5.6875 L 9.78125 -5.71875 L 6.671875 -5.71875 C 5.460938 -5.71875 4.609375 -5.507812 4.109375 -5.09375 C 3.617188 -4.675781 3.375 -4.160156 3.375 -3.546875 C 3.375 -2.910156 3.601562 -2.398438 4.0625 -2.015625 C 4.53125 -1.628906 5.1875 -1.4375 6.03125 -1.4375 Z M 6.03125 -1.4375 "/></g></g></g><g fill="#080808" fill-opacity="1"><g transform="translate(106.457277, 22.538072)"><g/></g></g></svg>